# xmcd CD database file
#
# Track frame offsets:
#	150
#	23583
#	48191
#	71621
#
# Disc length: 1281 seconds
#
# Revision: 0
# Processed by: cddbd v1.5.1PL2 Copyright (c) Steve Scherf et al.
# Submitted via: CDex 1.51
#
DISCID=2804ff04
DTITLE=リュ・シウォン - 夏の夢/好きです、好きです
DYEAR=2006
DGENRE=Japanese Pop
TTITLE0=夏の夢
TTITLE1=好きです、好きです
TTITLE2=夏の夢（INST)
TTITLE3=好きです、好きです（INST)
EXTD=YEAR: 2006
EXTT0=
EXTT1=
EXTT2=
EXTT3=
PLAYORDER=
